<svg id="visual" viewBox="0 0 960 540" width="960" height="540" xmlns="http://www.w3.org/2000/svg" xmlns:xlink="http://www.w3.org/1999/xlink" version="1.1"><rect x="0" y="0" width="960" height="540" fill="#f7cbcb"></rect><path d="M0 390L8.5 393C17 396 34 402 50.8 406.3C67.7 410.7 84.3 413.3 101.2 404C118 394.7 135 373.3 151.8 364.2C168.7 355 185.3 358 202.2 362.7C219 367.3 236 373.7 252.8 374.8C269.7 376 286.3 372 303.2 371.8C320 371.7 337 375.3 353.8 372.3C370.7 369.3 387.3 359.7 404.2 360.2C421 360.7 438 371.3 454.8 375.2C471.7 379 488.3 376 505.2 378.7C522 381.3 539 389.7 555.8 396.3C572.7 403 589.3 408 606.2 408C623 408 640 403 656.8 402.8C673.7 402.7 690.3 407.3 707.2 400.8C724 394.3 741 376.7 757.8 376.7C774.7 376.7 791.3 394.3 808.2 392.2C825 390 842 368 858.8 362.8C875.7 357.7 892.3 369.3 909.2 380.7C926 392 943 403 951.5 408.5L960 414L960 541L951.5 541C943 541 926 541 909.2 541C892.3 541 875.7 541 858.8 541C842 541 825 541 808.2 541C791.3 541 774.7 541 757.8 541C741 541 724 541 707.2 541C690.3 541 673.7 541 656.8 541C640 541 623 541 606.2 541C589.3 541 572.7 541 555.8 541C539 541 522 541 505.2 541C488.3 541 471.7 541 454.8 541C438 541 421 541 404.2 541C387.3 541 370.7 541 353.8 541C337 541 320 541 303.2 541C286.3 541 269.7 541 252.8 541C236 541 219 541 202.2 541C185.3 541 168.7 541 151.8 541C135 541 118 541 101.2 541C84.3 541 67.7 541 50.8 541C34 541 17 541 8.5 541L0 541Z" fill="#b96f93"></path><path d="M0 403L8.5 399.8C17 396.7 34 390.3 50.8 387.8C67.7 385.3 84.3 386.7 101.2 387.3C118 388 135 388 151.8 392.7C168.7 397.3 185.3 406.7 202.2 408.3C219 410 236 404 252.8 407.8C269.7 411.7 286.3 425.3 303.2 427.5C320 429.7 337 420.3 353.8 419.3C370.7 418.3 387.3 425.7 404.2 428.7C421 431.7 438 430.3 454.8 422.2C471.7 414 488.3 399 505.2 399.2C522 399.3 539 414.7 555.8 424C572.7 433.3 589.3 436.7 606.2 433.5C623 430.3 640 420.7 656.8 412.8C673.7 405 690.3 399 707.2 395.2C724 391.3 741 389.7 757.8 392.3C774.7 395 791.3 402 808.2 406.8C825 411.7 842 414.3 858.8 410.8C875.7 407.3 892.3 397.7 909.2 396.2C926 394.7 943 401.3 951.5 404.7L960 408L960 541L951.5 541C943 541 926 541 909.2 541C892.3 541 875.7 541 858.8 541C842 541 825 541 808.2 541C791.3 541 774.7 541 757.8 541C741 541 724 541 707.2 541C690.3 541 673.7 541 656.8 541C640 541 623 541 606.2 541C589.3 541 572.7 541 555.8 541C539 541 522 541 505.2 541C488.3 541 471.7 541 454.8 541C438 541 421 541 404.2 541C387.3 541 370.7 541 353.8 541C337 541 320 541 303.2 541C286.3 541 269.7 541 252.8 541C236 541 219 541 202.2 541C185.3 541 168.7 541 151.8 541C135 541 118 541 101.2 541C84.3 541 67.7 541 50.8 541C34 541 17 541 8.5 541L0 541Z" fill="#a25477"></path><path d="M0 440L8.5 444.2C17 448.3 34 456.7 50.8 454.7C67.7 452.7 84.3 440.3 101.2 435.8C118 431.3 135 434.7 151.8 443.3C168.7 452 185.3 466 202.2 468.7C219 471.3 236 462.7 252.8 463.8C269.7 465 286.3 476 303.2 476.7C320 477.3 337 467.7 353.8 465.7C370.7 463.7 387.3 469.3 404.2 468.5C421 467.7 438 460.3 454.8 453.2C471.7 446 488.3 439 505.2 441C522 443 539 454 555.8 454C572.7 454 589.3 443 606.2 445.8C623 448.7 640 465.3 656.8 470.2C673.7 475 690.3 468 707.2 461.7C724 455.3 741 449.7 757.8 454C774.7 458.3 791.3 472.7 808.2 480C825 487.3 842 487.7 858.8 485.8C875.7 484 892.3 480 909.2 477.2C926 474.3 943 472.7 951.5 471.8L960 471L960 541L951.5 541C943 541 926 541 909.2 541C892.3 541 875.7 541 858.8 541C842 541 825 541 808.2 541C791.3 541 774.7 541 757.8 541C741 541 724 541 707.2 541C690.3 541 673.7 541 656.8 541C640 541 623 541 606.2 541C589.3 541 572.7 541 555.8 541C539 541 522 541 505.2 541C488.3 541 471.7 541 454.8 541C438 541 421 541 404.2 541C387.3 541 370.7 541 353.8 541C337 541 320 541 303.2 541C286.3 541 269.7 541 252.8 541C236 541 219 541 202.2 541C185.3 541 168.7 541 151.8 541C135 541 118 541 101.2 541C84.3 541 67.7 541 50.8 541C34 541 17 541 8.5 541L0 541Z" fill="#8a3a5b"></path><path d="M0 504L8.5 503.7C17 503.3 34 502.7 50.8 496.7C67.7 490.7 84.3 479.3 101.2 477C118 474.7 135 481.3 151.8 484C168.7 486.7 185.3 485.3 202.2 488.7C219 492 236 500 252.8 498.5C269.7 497 286.3 486 303.2 481.5C320 477 337 479 353.8 480.3C370.7 481.7 387.3 482.3 404.2 486.7C421 491 438 499 454.8 503C471.7 507 488.3 507 505.2 505.2C522 503.3 539 499.7 555.8 500.3C572.7 501 589.3 506 606.2 505C623 504 640 497 656.8 494.3C673.7 491.7 690.3 493.3 707.2 495.8C724 498.3 741 501.7 757.8 506.7C774.7 511.7 791.3 518.3 808.2 515.7C825 513 842 501 858.8 498C875.7 495 892.3 501 909.2 497.3C926 493.7 943 480.3 951.5 473.7L960 467L960 541L951.5 541C943 541 926 541 909.2 541C892.3 541 875.7 541 858.8 541C842 541 825 541 808.2 541C791.3 541 774.7 541 757.8 541C741 541 724 541 707.2 541C690.3 541 673.7 541 656.8 541C640 541 623 541 606.2 541C589.3 541 572.7 541 555.8 541C539 541 522 541 505.2 541C488.3 541 471.7 541 454.8 541C438 541 421 541 404.2 541C387.3 541 370.7 541 353.8 541C337 541 320 541 303.2 541C286.3 541 269.7 541 252.8 541C236 541 219 541 202.2 541C185.3 541 168.7 541 151.8 541C135 541 118 541 101.2 541C84.3 541 67.7 541 50.8 541C34 541 17 541 8.5 541L0 541Z" fill="#721e41"></path></svg>