<svg id="visual" viewBox="0 0 900 675" width="900" height="675" xmlns="http://www.w3.org/2000/svg" xmlns:xlink="http://www.w3.org/1999/xlink" version="1.1"><rect x="0" y="0" width="900" height="675" fill="#ad4973"></rect><defs><linearGradient id="grad1_0" x1="25%" y1="100%" x2="100%" y2="0%"><stop offset="23.333333333333336%" stop-color="#fc7663" stop-opacity="1"></stop><stop offset="76.66666666666666%" stop-color="#fc7663" stop-opacity="1"></stop></linearGradient></defs><defs><linearGradient id="grad1_1" x1="25%" y1="100%" x2="100%" y2="0%"><stop offset="23.333333333333336%" stop-color="#fc7663" stop-opacity="1"></stop><stop offset="76.66666666666666%" stop-color="#e6636c" stop-opacity="1"></stop></linearGradient></defs><defs><linearGradient id="grad1_2" x1="25%" y1="100%" x2="100%" y2="0%"><stop offset="23.333333333333336%" stop-color="#cb5471" stop-opacity="1"></stop><stop offset="76.66666666666666%" stop-color="#e6636c" stop-opacity="1"></stop></linearGradient></defs><defs><linearGradient id="grad1_3" x1="25%" y1="100%" x2="100%" y2="0%"><stop offset="23.333333333333336%" stop-color="#cb5471" stop-opacity="1"></stop><stop offset="76.66666666666666%" stop-color="#ad4973" stop-opacity="1"></stop></linearGradient></defs><defs><linearGradient id="grad2_0" x1="0%" y1="100%" x2="75%" y2="0%"><stop offset="23.333333333333336%" stop-color="#fc7663" stop-opacity="1"></stop><stop offset="76.66666666666666%" stop-color="#fc7663" stop-opacity="1"></stop></linearGradient></defs><defs><linearGradient id="grad2_1" x1="0%" y1="100%" x2="75%" y2="0%"><stop offset="23.333333333333336%" stop-color="#e6636c" stop-opacity="1"></stop><stop offset="76.66666666666666%" stop-color="#fc7663" stop-opacity="1"></stop></linearGradient></defs><defs><linearGradient id="grad2_2" x1="0%" y1="100%" x2="75%" y2="0%"><stop offset="23.333333333333336%" stop-color="#e6636c" stop-opacity="1"></stop><stop offset="76.66666666666666%" stop-color="#cb5471" stop-opacity="1"></stop></linearGradient></defs><defs><linearGradient id="grad2_3" x1="0%" y1="100%" x2="75%" y2="0%"><stop offset="23.333333333333336%" stop-color="#ad4973" stop-opacity="1"></stop><stop offset="76.66666666666666%" stop-color="#cb5471" stop-opacity="1"></stop></linearGradient></defs><g transform="translate(900, 675)"><path d="M-562.5 0C-554.2 -72.1 -546 -144.2 -519.7 -215.3C-493.4 -286.3 -449 -356.2 -387.5 -387.5C-326 -418.8 -247.3 -411.5 -179.9 -434.2C-112.4 -457 -56.2 -509.7 0 -562.5L0 0Z" fill="#bc4e73"></path><path d="M-421.9 0C-415.7 -54.1 -409.5 -108.2 -389.8 -161.4C-370 -214.7 -336.8 -267.1 -290.6 -290.6C-244.5 -314.1 -185.5 -308.6 -134.9 -325.7C-84.3 -342.7 -42.2 -382.3 0 -421.9L0 0Z" fill="#d95b6f"></path><path d="M-281.2 0C-277.1 -36.1 -273 -72.1 -259.8 -107.6C-246.7 -143.1 -224.5 -178.1 -193.7 -193.7C-163 -209.4 -123.7 -205.7 -89.9 -217.1C-56.2 -228.5 -28.1 -254.9 0 -281.2L0 0Z" fill="#f26c68"></path><path d="M-140.6 0C-138.6 -18 -136.5 -36.1 -129.9 -53.8C-123.3 -71.6 -112.3 -89 -96.9 -96.9C-81.5 -104.7 -61.8 -102.9 -45 -108.6C-28.1 -114.2 -14.1 -127.4 0 -140.6L0 0Z" fill="#fc7663"></path></g><g transform="translate(0, 0)"><path d="M562.5 0C558.3 76.5 554 153 519.7 215.3C485.4 277.5 420.9 325.4 361.3 361.3C301.7 397.3 246.9 421.2 187.5 452.7C128.1 484.2 64 523.4 0 562.5L0 0Z" fill="#bc4e73"></path><path d="M421.9 0C418.7 57.4 415.5 114.8 389.8 161.4C364 208.1 315.7 244.1 271 271C226.3 297.9 185.2 315.9 140.6 339.5C96.1 363.2 48 392.5 0 421.9L0 0Z" fill="#d95b6f"></path><path d="M281.3 0C279.1 38.3 277 76.5 259.8 107.6C242.7 138.7 210.5 162.7 180.7 180.7C150.9 198.6 123.5 210.6 93.8 226.4C64 242.1 32 261.7 0 281.3L0 0Z" fill="#f26c68"></path><path d="M140.6 0C139.6 19.1 138.5 38.3 129.9 53.8C121.3 69.4 105.2 81.4 90.3 90.3C75.4 99.3 61.7 105.3 46.9 113.2C32 121.1 16 130.8 0 140.6L0 0Z" fill="#fc7663"></path></g></svg>