<svg id="visual" viewBox="0 0 900 675" width="900" height="675" xmlns="http://www.w3.org/2000/svg" xmlns:xlink="http://www.w3.org/1999/xlink" version="1.1"><rect x="0" y="0" width="900" height="675" fill="#ad4973"></rect><defs><linearGradient id="grad1_0" x1="25%" y1="100%" x2="100%" y2="0%"><stop offset="23.333333333333336%" stop-color="#fc7663" stop-opacity="1"></stop><stop offset="76.66666666666666%" stop-color="#fc7663" stop-opacity="1"></stop></linearGradient></defs><defs><linearGradient id="grad1_1" x1="25%" y1="100%" x2="100%" y2="0%"><stop offset="23.333333333333336%" stop-color="#fc7663" stop-opacity="1"></stop><stop offset="76.66666666666666%" stop-color="#e6636c" stop-opacity="1"></stop></linearGradient></defs><defs><linearGradient id="grad1_2" x1="25%" y1="100%" x2="100%" y2="0%"><stop offset="23.333333333333336%" stop-color="#cb5471" stop-opacity="1"></stop><stop offset="76.66666666666666%" stop-color="#e6636c" stop-opacity="1"></stop></linearGradient></defs><defs><linearGradient id="grad1_3" x1="25%" y1="100%" x2="100%" y2="0%"><stop offset="23.333333333333336%" stop-color="#cb5471" stop-opacity="1"></stop><stop offset="76.66666666666666%" stop-color="#ad4973" stop-opacity="1"></stop></linearGradient></defs><defs><linearGradient id="grad2_0" x1="0%" y1="100%" x2="75%" y2="0%"><stop offset="23.333333333333336%" stop-color="#fc7663" stop-opacity="1"></stop><stop offset="76.66666666666666%" stop-color="#fc7663" stop-opacity="1"></stop></linearGradient></defs><defs><linearGradient id="grad2_1" x1="0%" y1="100%" x2="75%" y2="0%"><stop offset="23.333333333333336%" stop-color="#e6636c" stop-opacity="1"></stop><stop offset="76.66666666666666%" stop-color="#fc7663" stop-opacity="1"></stop></linearGradient></defs><defs><linearGradient id="grad2_2" x1="0%" y1="100%" x2="75%" y2="0%"><stop offset="23.333333333333336%" stop-color="#e6636c" stop-opacity="1"></stop><stop offset="76.66666666666666%" stop-color="#cb5471" stop-opacity="1"></stop></linearGradient></defs><defs><linearGradient id="grad2_3" x1="0%" y1="100%" x2="75%" y2="0%"><stop offset="23.333333333333336%" stop-color="#ad4973" stop-opacity="1"></stop><stop offset="76.66666666666666%" stop-color="#cb5471" stop-opacity="1"></stop></linearGradient></defs><g transform="translate(900, 675)"><path d="M-562.5 0C-521.4 -64.1 -480.3 -128.3 -446.2 -184.8C-412.1 -241.4 -385 -290.5 -350.7 -350.7C-316.4 -411 -274.9 -482.5 -215.3 -519.7C-155.6 -556.9 -77.8 -559.7 0 -562.5L0 0Z" fill="#bc4e73"></path><path d="M-421.9 0C-391.1 -48.1 -360.2 -96.2 -334.7 -138.6C-309.1 -181.1 -288.8 -217.8 -263 -263C-237.3 -308.2 -206.2 -361.9 -161.4 -389.8C-116.7 -417.6 -58.4 -419.8 0 -421.9L0 0Z" fill="#d95b6f"></path><path d="M-281.2 0C-260.7 -32.1 -240.2 -64.1 -223.1 -92.4C-206.1 -120.7 -192.5 -145.2 -175.4 -175.4C-158.2 -205.5 -137.5 -241.3 -107.6 -259.8C-77.8 -278.4 -38.9 -279.8 0 -281.2L0 0Z" fill="#f26c68"></path><path d="M-140.6 0C-130.4 -16 -120.1 -32.1 -111.6 -46.2C-103 -60.4 -96.3 -72.6 -87.7 -87.7C-79.1 -102.7 -68.7 -120.6 -53.8 -129.9C-38.9 -139.2 -19.5 -139.9 0 -140.6L0 0Z" fill="#fc7663"></path></g><g transform="translate(0, 0)"><path d="M562.5 0C510.8 54.1 459.2 108.1 440.7 182.5C422.2 257 436.8 351.8 397.7 397.7C358.7 443.7 265.8 440.8 190.6 460.1C115.3 479.4 57.7 521 0 562.5L0 0Z" fill="#bc4e73"></path><path d="M421.9 0C383.1 40.5 344.4 81.1 330.5 136.9C316.6 192.7 327.6 263.8 298.3 298.3C269 332.8 199.4 330.6 142.9 345.1C86.5 359.6 43.2 390.7 0 421.9L0 0Z" fill="#d95b6f"></path><path d="M281.3 0C255.4 27 229.6 54.1 220.3 91.3C211.1 128.5 218.4 175.9 198.9 198.9C179.3 221.8 132.9 220.4 95.3 230C57.7 239.7 28.8 260.5 0 281.3L0 0Z" fill="#f26c68"></path><path d="M140.6 0C127.7 13.5 114.8 27 110.2 45.6C105.5 64.2 109.2 87.9 99.4 99.4C89.7 110.9 66.5 110.2 47.6 115C28.8 119.9 14.4 130.2 0 140.6L0 0Z" fill="#fc7663"></path></g></svg>