<svg id="visual" viewBox="0 0 900 675" width="900" height="675" xmlns="http://www.w3.org/2000/svg" xmlns:xlink="http://www.w3.org/1999/xlink" version="1.1"><rect x="0" y="0" width="900" height="675" fill="#ad4973"></rect><defs><linearGradient id="grad1_0" x1="25%" y1="100%" x2="100%" y2="0%"><stop offset="23.333333333333336%" stop-color="#fc7663" stop-opacity="1"></stop><stop offset="76.66666666666666%" stop-color="#fc7663" stop-opacity="1"></stop></linearGradient></defs><defs><linearGradient id="grad1_1" x1="25%" y1="100%" x2="100%" y2="0%"><stop offset="23.333333333333336%" stop-color="#fc7663" stop-opacity="1"></stop><stop offset="76.66666666666666%" stop-color="#e6636c" stop-opacity="1"></stop></linearGradient></defs><defs><linearGradient id="grad1_2" x1="25%" y1="100%" x2="100%" y2="0%"><stop offset="23.333333333333336%" stop-color="#cb5471" stop-opacity="1"></stop><stop offset="76.66666666666666%" stop-color="#e6636c" stop-opacity="1"></stop></linearGradient></defs><defs><linearGradient id="grad1_3" x1="25%" y1="100%" x2="100%" y2="0%"><stop offset="23.333333333333336%" stop-color="#cb5471" stop-opacity="1"></stop><stop offset="76.66666666666666%" stop-color="#ad4973" stop-opacity="1"></stop></linearGradient></defs><defs><linearGradient id="grad2_0" x1="0%" y1="100%" x2="75%" y2="0%"><stop offset="23.333333333333336%" stop-color="#fc7663" stop-opacity="1"></stop><stop offset="76.66666666666666%" stop-color="#fc7663" stop-opacity="1"></stop></linearGradient></defs><defs><linearGradient id="grad2_1" x1="0%" y1="100%" x2="75%" y2="0%"><stop offset="23.333333333333336%" stop-color="#e6636c" stop-opacity="1"></stop><stop offset="76.66666666666666%" stop-color="#fc7663" stop-opacity="1"></stop></linearGradient></defs><defs><linearGradient id="grad2_2" x1="0%" y1="100%" x2="75%" y2="0%"><stop offset="23.333333333333336%" stop-color="#e6636c" stop-opacity="1"></stop><stop offset="76.66666666666666%" stop-color="#cb5471" stop-opacity="1"></stop></linearGradient></defs><defs><linearGradient id="grad2_3" x1="0%" y1="100%" x2="75%" y2="0%"><stop offset="23.333333333333336%" stop-color="#ad4973" stop-opacity="1"></stop><stop offset="76.66666666666666%" stop-color="#cb5471" stop-opacity="1"></stop></linearGradient></defs><g transform="translate(900, 675)"><path d="M-562.5 0C-531.1 -69.4 -499.6 -138.9 -460.1 -190.6C-420.6 -242.3 -372.9 -276.3 -335.2 -335.2C-297.4 -394 -269.5 -477.7 -215.3 -519.7C-161 -561.7 -80.5 -562.1 0 -562.5L0 0Z" fill="#bc4e73"></path><path d="M-421.9 0C-398.3 -52.1 -374.7 -104.1 -345.1 -142.9C-315.4 -181.7 -279.7 -207.2 -251.4 -251.4C-223 -295.5 -202.1 -358.2 -161.4 -389.8C-120.8 -421.3 -60.4 -421.6 0 -421.9L0 0Z" fill="#d95b6f"></path><path d="M-281.2 0C-265.5 -34.7 -249.8 -69.4 -230 -95.3C-210.3 -121.2 -186.5 -138.2 -167.6 -167.6C-148.7 -197 -134.7 -238.8 -107.6 -259.8C-80.5 -280.9 -40.3 -281.1 0 -281.2L0 0Z" fill="#f26c68"></path><path d="M-140.6 0C-132.8 -17.4 -124.9 -34.7 -115 -47.6C-105.1 -60.6 -93.2 -69.1 -83.8 -83.8C-74.3 -98.5 -67.4 -119.4 -53.8 -129.9C-40.3 -140.4 -20.1 -140.5 0 -140.6L0 0Z" fill="#fc7663"></path></g><g transform="translate(0, 0)"><path d="M562.5 0C537 71.9 511.5 143.8 471.2 195.2C430.9 246.6 375.7 277.5 335.2 335.2C294.6 392.9 268.7 477.3 215.3 519.7C161.8 562 80.9 562.3 0 562.5L0 0Z" fill="#bc4e73"></path><path d="M421.9 0C402.8 53.9 383.6 107.8 353.4 146.4C323.1 184.9 281.8 208.1 251.4 251.4C221 294.6 201.5 358 161.4 389.8C121.4 421.5 60.7 421.7 0 421.9L0 0Z" fill="#d95b6f"></path><path d="M281.3 0C268.5 35.9 255.8 71.9 235.6 97.6C215.4 123.3 187.9 138.7 167.6 167.6C147.3 196.4 134.3 238.7 107.6 259.8C80.9 281 40.5 281.1 0 281.3L0 0Z" fill="#f26c68"></path><path d="M140.6 0C134.3 18 127.9 35.9 117.8 48.8C107.7 61.6 93.9 69.4 83.8 83.8C73.7 98.2 67.2 119.3 53.8 129.9C40.5 140.5 20.2 140.6 0 140.6L0 0Z" fill="#fc7663"></path></g></svg>