<svg id="visual" viewBox="0 0 900 675" width="900" height="675" xmlns="http://www.w3.org/2000/svg" xmlns:xlink="http://www.w3.org/1999/xlink" version="1.1"><rect x="0" y="0" width="900" height="675" fill="#ad4973"></rect><defs><linearGradient id="grad1_0" x1="25%" y1="100%" x2="100%" y2="0%"><stop offset="23.333333333333336%" stop-color="#fc7663" stop-opacity="1"></stop><stop offset="76.66666666666666%" stop-color="#fc7663" stop-opacity="1"></stop></linearGradient></defs><defs><linearGradient id="grad1_1" x1="25%" y1="100%" x2="100%" y2="0%"><stop offset="23.333333333333336%" stop-color="#fc7663" stop-opacity="1"></stop><stop offset="76.66666666666666%" stop-color="#e6636c" stop-opacity="1"></stop></linearGradient></defs><defs><linearGradient id="grad1_2" x1="25%" y1="100%" x2="100%" y2="0%"><stop offset="23.333333333333336%" stop-color="#cb5471" stop-opacity="1"></stop><stop offset="76.66666666666666%" stop-color="#e6636c" stop-opacity="1"></stop></linearGradient></defs><defs><linearGradient id="grad1_3" x1="25%" y1="100%" x2="100%" y2="0%"><stop offset="23.333333333333336%" stop-color="#cb5471" stop-opacity="1"></stop><stop offset="76.66666666666666%" stop-color="#ad4973" stop-opacity="1"></stop></linearGradient></defs><defs><linearGradient id="grad2_0" x1="0%" y1="100%" x2="75%" y2="0%"><stop offset="23.333333333333336%" stop-color="#fc7663" stop-opacity="1"></stop><stop offset="76.66666666666666%" stop-color="#fc7663" stop-opacity="1"></stop></linearGradient></defs><defs><linearGradient id="grad2_1" x1="0%" y1="100%" x2="75%" y2="0%"><stop offset="23.333333333333336%" stop-color="#e6636c" stop-opacity="1"></stop><stop offset="76.66666666666666%" stop-color="#fc7663" stop-opacity="1"></stop></linearGradient></defs><defs><linearGradient id="grad2_2" x1="0%" y1="100%" x2="75%" y2="0%"><stop offset="23.333333333333336%" stop-color="#e6636c" stop-opacity="1"></stop><stop offset="76.66666666666666%" stop-color="#cb5471" stop-opacity="1"></stop></linearGradient></defs><defs><linearGradient id="grad2_3" x1="0%" y1="100%" x2="75%" y2="0%"><stop offset="23.333333333333336%" stop-color="#ad4973" stop-opacity="1"></stop><stop offset="76.66666666666666%" stop-color="#cb5471" stop-opacity="1"></stop></linearGradient></defs><g transform="translate(900, 675)"><path d="M-562.5 0C-510.8 -61.6 -459.1 -123.2 -420.4 -174.1C-381.7 -225 -355.9 -265.1 -328.1 -328.1C-300.3 -391.1 -270.3 -476.8 -215.3 -519.7C-160.2 -562.6 -80.1 -562.5 0 -562.5L0 0Z" fill="#bc4e73"></path><path d="M-421.9 0C-383.1 -46.2 -344.3 -92.4 -315.3 -130.6C-286.2 -168.8 -267 -198.9 -246.1 -246.1C-225.2 -293.3 -202.7 -357.6 -161.4 -389.8C-120.2 -421.9 -60.1 -421.9 0 -421.9L0 0Z" fill="#d95b6f"></path><path d="M-281.2 0C-255.4 -30.8 -229.5 -61.6 -210.2 -87.1C-190.8 -112.5 -178 -132.6 -164 -164C-150.1 -195.5 -135.1 -238.4 -107.6 -259.8C-80.1 -281.3 -40.1 -281.3 0 -281.2L0 0Z" fill="#f26c68"></path><path d="M-140.6 0C-127.7 -15.4 -114.8 -30.8 -105.1 -43.5C-95.4 -56.3 -89 -66.3 -82 -82C-75.1 -97.8 -67.6 -119.2 -53.8 -129.9C-40.1 -140.6 -20 -140.6 0 -140.6L0 0Z" fill="#fc7663"></path></g><g transform="translate(0, 0)"><path d="M562.5 0C536 65.4 509.6 130.8 486.9 201.7C464.2 272.6 445.2 349 397.7 397.7C350.3 446.5 274.3 467.7 203.2 490.6C132.2 513.4 66.1 538 0 562.5L0 0Z" fill="#bc4e73"></path><path d="M421.9 0C402 49 382.2 98.1 365.2 151.3C348.1 204.4 333.9 261.7 298.3 298.3C262.7 334.9 205.7 350.8 152.4 367.9C99.1 385.1 49.6 403.5 0 421.9L0 0Z" fill="#d95b6f"></path><path d="M281.3 0C268 32.7 254.8 65.4 243.4 100.8C232.1 136.3 222.6 174.5 198.9 198.9C175.1 223.3 137.1 233.9 101.6 245.3C66.1 256.7 33 269 0 281.3L0 0Z" fill="#f26c68"></path><path d="M140.6 0C134 16.3 127.4 32.7 121.7 50.4C116 68.1 111.3 87.2 99.4 99.4C87.6 111.6 68.6 116.9 50.8 122.6C33 128.4 16.5 134.5 0 140.6L0 0Z" fill="#fc7663"></path></g></svg>