<?xml version="1.0" ?><!-- Uploaded to: SVG Repo, www.svgrepo.com, Generator: SVG Repo Mixer Tools -->
<svg fill="#000000" width="800px" height="800px" viewBox="0 0 64 64" id="Layer_1_1_" version="1.1" xml:space="preserve" xmlns="http://www.w3.org/2000/svg" xmlns:xlink="http://www.w3.org/1999/xlink"><path d="M63,19c0-7.168-5.832-13-13-13c-1.618,0-3.183,0.309-4.671,0.884C41.956,3.208,37.143,1,32,1  c-5.143,0-9.956,2.208-13.329,5.884C17.183,6.309,15.618,6,14,6C6.832,6,1,11.832,1,19c0,4.96,2.839,9.48,7.266,11.66  C9.229,33.72,12.774,36,17,36c2.292,0,4.381-0.676,5.971-1.777c-0.134,2.71-0.761,5.341-1.869,7.836l-1.053,2.368  C19.353,45.994,19,47.657,19,49.372c0,3.252,1.267,6.309,3.566,8.608l5.02,5.02h8.828l5.02-5.02C43.733,55.681,45,52.624,45,49.372  c0-1.714-0.353-3.378-1.049-4.945l-1.053-2.368c-1.109-2.495-1.735-5.126-1.869-7.836C42.619,35.324,44.708,36,47,36  c4.226,0,7.771-2.28,8.734-5.34C60.161,28.48,63,23.96,63,19z M32,3c5.091,0,9.825,2.425,12.826,6.385  c-0.771,0.407-1.51,0.86-2.213,1.356C39.605,8.332,35.874,7,32,7s-7.605,1.332-10.612,3.741c-0.703-0.496-1.442-0.949-2.213-1.356  C22.175,5.425,26.909,3,32,3z M37.373,44.358C38.422,45.691,39,47.34,39,49c0,2.03-0.883,3.958-2.422,5.287  c-2.014,1.74-3.262,4.144-3.522,6.713h-2.111c-0.26-2.568-1.509-4.973-3.522-6.713C25.883,52.958,25,51.03,25,49  c0-1.66,0.578-3.309,1.627-4.642C29.447,40.775,31,36.386,31,32l-1.331-8.069c-0.783-4.696-3.175-8.881-6.672-11.92  C25.585,10.066,28.736,9,32,9c3.263,0,6.415,1.065,9.003,3.01c-3.497,3.039-5.889,7.224-6.672,11.92l-1.317,7.905L33,32  C33,36.386,34.553,40.775,37.373,44.358z M3,19C3,12.935,7.935,8,14,8c1.147,0,2.264,0.178,3.337,0.52  c-0.405,0.562-0.783,1.146-1.125,1.758C15.492,10.096,14.752,10,14,10c-4.962,0-9,4.038-9,9c0,2.894,1.403,5.59,3.712,7.272  c-0.339,0.62-0.564,1.285-0.659,1.981C4.94,26.249,3,22.773,3,19z M9.929,24.684C8.109,23.377,7,21.268,7,19c0-3.86,3.14-7,7-7  c0.439,0,0.872,0.048,1.298,0.128l-0.42,0.924l5.22,9.136c0.055,0.096,0.102,0.197,0.155,0.293C19.243,22.174,18.148,22,17,22  C14.131,22,11.578,23.053,9.929,24.684z M17,34c-3.86,0-7-2.243-7-5s3.14-5,7-5s7,2.243,7,5S20.86,34,17,34z M23.98,56.566  C22.058,54.644,21,52.089,21,49.372c0-1.433,0.295-2.823,0.876-4.132l1.053-2.368C24.303,39.78,25,36.498,25,33.114  c0-0.296-0.012-0.591-0.023-0.885C25.627,31.262,26,30.165,26,29c0-2.003-1.094-3.808-2.834-5.085  c-0.387-0.932-0.833-1.847-1.332-2.72l-4.712-8.247l0.236-0.521c0.213-0.469,0.455-0.919,0.709-1.36  c5.104,2.626,8.679,7.493,9.629,13.192L29,32.082c-0.02,3.913-1.418,7.83-3.944,11.04C23.73,44.805,23,46.893,23,49  c0,2.612,1.135,5.091,3.115,6.801c1.572,1.358,2.563,3.213,2.816,5.199h-0.517L23.98,56.566z M42.123,45.239  c0.582,1.309,0.877,2.7,0.877,4.132c0,2.718-1.058,5.272-2.98,7.194L35.586,61h-0.517c0.253-1.986,1.244-3.842,2.816-5.199  C39.865,54.091,41,51.612,41,49c0-2.107-0.73-4.195-2.056-5.879c-2.526-3.209-3.925-7.127-3.944-11.04l1.304-7.822  c0.95-5.699,4.525-10.566,9.629-13.192c0.254,0.441,0.496,0.891,0.709,1.36l0.236,0.52l-4.712,8.247  c-0.498,0.872-0.938,1.786-1.323,2.714C39.097,25.186,38,26.993,38,29c0,1.163,0.372,2.258,1.02,3.224  C39.009,32.52,39,32.817,39,33.114c0,3.383,0.697,6.666,2.071,9.757L42.123,45.239z M49.122,13.052l-0.42-0.924  C49.128,12.048,49.561,12,50,12c3.86,0,7,3.14,7,7c0,2.268-1.109,4.377-2.929,5.684C52.422,23.053,49.869,22,47,22  c-1.148,0-2.242,0.174-3.252,0.48c0.053-0.096,0.1-0.197,0.154-0.293L49.122,13.052z M47,34c-3.86,0-7-2.243-7-5s3.14-5,7-5  s7,2.243,7,5S50.86,34,47,34z M55.947,28.253c-0.095-0.695-0.32-1.361-0.659-1.981C57.597,24.59,59,21.894,59,19  c0-4.962-4.038-9-9-9c-0.752,0-1.492,0.096-2.212,0.278c-0.341-0.612-0.719-1.197-1.125-1.758C47.736,8.178,48.852,8,50,8  c6.065,0,11,4.935,11,11C61,22.773,59.06,26.249,55.947,28.253z"/></svg>