<?xml version="1.0" encoding="utf-8"?>
<!-- Uploaded to: SVG Repo, www.svgrepo.com, Generator: SVG Repo Mixer Tools -->
<svg width="800px" height="800px" viewBox="-20.84 0 300.247 300.247" xmlns="http://www.w3.org/2000/svg"><defs><style>.a{fill:#a98a75;}.b{fill:#ffffff;}.c{fill:#211715;}.d{fill:#f8b8b4;}.e{fill:#f2635f;}</style></defs><path class="a" d="M201.268,156.651c12.067-4.532,12.188-11.956,12.239-16.275a44.392,44.392,0,0,0-2.551-15.62c-2.218-6.892-6.3-20.893-6.06-45.747l.005,0c.835-7.183.385-17.6.177-21.6-.722-13.876-7.694-29.5-17.261-38.244L178.251,12.1c-12.8-8.553-24.5-10.385-36.107-9.481-18.4,1.431-33.02,8.961-42.627,20.934-5.546,6.912-9.4,16.841-10.731,25.631a90.3,90.3,0,0,0,1.395,30.53c2.055,19.443-3.441,40.064-1.81,55.975.5,5.057,3.1,11.117,10.167,15.85Z"/><path class="b" d="M156.164,42.254a142.2,142.2,0,0,0,5.681,14.953c2.555,5.631,9.351,15.292,15.509,18.4,2.489,1.168,7.823,2.779,10.276,2.092a7.831,7.831,0,0,1,5.635-1.331c3.884.528,5.34,2.707,5.932,3.957,1.766,3.74,1.012,10.21-.834,14.079a20.491,20.491,0,0,1-7.6,9.237,15.062,15.062,0,0,1-7.467,1.822c-.229.624-.392,1.074-.392,1.074-.911,1.978-3.085,5.45-3.085,5.45a67.9,67.9,0,0,1-8.776,11.025c.378,2.148.768,4.277,1.138,6.426a26.477,26.477,0,0,0,1.39,5.56c2,4.936,12.555,7.611,18.482,9.182a77.96,77.96,0,0,1-45.972,15.536c-6.186,0-12.472-.787-18.236-3.374a29.333,29.333,0,0,1-13.316-12.022c2.853-.982,5.626-1.965,7.592-2.822,2.03-.68,4.461-1.81,5.74-3.6a39.977,39.977,0,0,1-20.824-8.974C98.283,121.992,94.35,110.9,92.806,98.59c-.891-7.1-1.689-14.816-2.828-22.523l-.058-.4,1.716-1.2c.715-.5,1.841-1.221,2.773-1.891,8.537-6.1,17.675-13.592,26.128-20.788a.458.458,0,0,1,.735.487,32.894,32.894,0,0,0-1.418,7.922,2.075,2.075,0,0,0,2.686,2.091c13.137-3.98,25.333-11.079,33.518-20.319"/><path class="c" d="M106.2,149.8c4.028-1.558,8.159-2.838,12.222-4.3,1.818-.654,3.762-1.423,5.379-2.061a13.5,13.5,0,0,0,6.133-4.323,2.415,2.415,0,0,0-.861-3.284,2.46,2.46,0,0,0-3.284.861c-1.07,1.412-3.026,1.983-4.592,2.618-1.332.54-3.321,1.305-4.985,1.893-3.759,1.329-7.569,2.528-11.288,3.966a2.47,2.47,0,0,0-1.677,2.952A2.419,2.419,0,0,0,106.2,149.8Z"/><path class="c" d="M201.906,158.965c5.629-2.154,10.84-5.556,12.981-11.437,1.7-4.671,1.2-10.481.438-15.243-.768-4.828-2.559-9.395-3.808-14.1a117.3,117.3,0,0,1-2.84-14.4A174.76,174.76,0,0,1,207.3,79.009l-1.762,2.314h0a2.532,2.532,0,0,0,1.762-2.315,103.765,103.765,0,0,0,.466-13.123c-.052-3.579-.109-7.195-.463-10.76a64.066,64.066,0,0,0-8.579-26,51.012,51.012,0,0,0-9.211-11.653c-2.268-2.091-5.671,1.3-3.394,3.394,6.136,5.659,10.508,13.184,13.287,21.005a56.761,56.761,0,0,1,3.037,12.682c.374,3.387.435,6.827.5,10.232a107.739,107.739,0,0,1-.447,14.226l1.762-2.314,0,0a2.482,2.482,0,0,0-1.762,2.314c-.107,12.6.778,25.323,3.682,37.611.864,3.657,2.031,7.2,3.094,10.8A42.064,42.064,0,0,1,211.1,138.3c.03,1.146.024,2.3-.019,3.443-.014.382-.035.764-.067,1.145-.016.185-.036.369-.054.554-.035.365.073-.353-.047.314-.084.464-.178.926-.3,1.382q-.11.408-.244.809c-.043.128-.247.679-.187.532s-.188.409-.252.538q-.21.422-.451.826a11.356,11.356,0,0,1-.785,1.161,18.828,18.828,0,0,1-8.061,5.334,2.469,2.469,0,0,0-1.676,2.952,2.417,2.417,0,0,0,2.952,1.676Z"/><path class="c" d="M87.427,76.892c1.717,11.3.5,22.84-.583,34.14-.52,5.415-1.053,10.84-1.161,16.282-.087,4.37-.113,9.052,1.275,13.247A25.749,25.749,0,0,0,97.327,153.61c2.56,1.743,4.964-2.414,2.422-4.144a20.428,20.428,0,0,1-8.113-10.036c-1.344-3.959-1.247-8.212-1.145-12.513.259-10.805,1.985-21.518,2.441-32.315a98.488,98.488,0,0,0-.877-18.986A2.417,2.417,0,0,0,89.1,73.94a2.46,2.46,0,0,0-1.676,2.952Z"/><path class="c" d="M139.932,88.61c-.719-2.506-.109-8.229,4.621-8.625,6.238.158,6.437,7.094,4.274,10.312C147.056,92.931,141.978,93.943,139.932,88.61Z"/><path class="c" d="M102.868,89.059c-.661-2.515-.108-8.255,4.223-8.648,5.713.165,5.9,7.123,3.924,10.349C109.4,93.4,104.748,94.411,102.868,89.059Z"/><path class="c" d="M122.28,94.581c-.8,1.385-1.547,2.8-2.225,4.243a5.531,5.531,0,0,0-.66,2.278,3.3,3.3,0,0,0,1.211,2.6,4.785,4.785,0,0,0,2.062,1.1c.5.105,1.015.115,1.522.182a2.387,2.387,0,0,0,1.7-.7,2.4,2.4,0,0,0,0-3.394l-.486-.375a2.375,2.375,0,0,0-1.211-.328c-.22-.029-.442-.035-.662-.06l.638.086a2.738,2.738,0,0,1-.617-.156l.573.242a2.844,2.844,0,0,1-.608-.365l.486.376a3.146,3.146,0,0,1-.342-.321l.375.486a.715.715,0,0,1-.091-.15l.242.574a1.218,1.218,0,0,1-.068-.25l.085.638a1.764,1.764,0,0,1,0-.272l-.086.638a2.832,2.832,0,0,1,.184-.662l-.242.574A42.66,42.66,0,0,1,126.425,97a2.4,2.4,0,1,0-4.145-2.423Z"/><path class="c" d="M169.37,127.861A67.392,67.392,0,0,0,179.63,116.5a55.547,55.547,0,0,0,5.342-8.746,2.469,2.469,0,0,0-.861-3.284,2.419,2.419,0,0,0-3.283.861,59.973,59.973,0,0,1-14.852,19.139,2.422,2.422,0,0,0,0,3.394,2.447,2.447,0,0,0,3.394,0Z"/><path class="c" d="M179.462,10.026A57.893,57.893,0,0,0,150.034.07,70.156,70.156,0,0,0,121.6,4.733a57.505,57.505,0,0,0-21.975,15A56.165,56.165,0,0,0,86.8,46.618c-2.108,11.117-1.382,23.155,1.158,34.134.7,3.009,5.326,1.735,4.629-1.276A83.659,83.659,0,0,1,90.98,50.693c1.111-8.945,4.583-18.357,10.234-25.444,10.912-13.687,28.232-20.243,45.431-20.436a53.343,53.343,0,0,1,30.394,9.358c2.582,1.712,4.989-2.443,2.423-4.145Z"/><path class="c" d="M156.365,129.7c-12.112,5.792-26.485,8.709-39.139,2.789-5.754-2.693-11.143-6.643-14.7-11.971-3.6-5.386-5.544-11.643-6.7-17.968-.762-4.164-1.158-8.394-1.655-12.6-.573-4.849-1.168-9.7-1.877-14.529a2.417,2.417,0,0,0-2.953-1.676,2.462,2.462,0,0,0-1.676,2.952c1.246,8.489,1.89,17.071,3.26,25.539,1.114,6.892,3.144,13.824,6.867,19.786,7.548,12.087,22.1,18.956,36.153,18.5,8.744-.283,17-2.934,24.844-6.684a2.422,2.422,0,0,0,.861-3.284,2.452,2.452,0,0,0-3.284-.861Z"/><path class="c" d="M188.842,79.775a6.064,6.064,0,0,1,7.482.522,3.133,3.133,0,0,1,.238.264c-.026-.032-.192-.265-.038-.051a6.54,6.54,0,0,1,.369.581,5.331,5.331,0,0,1,.481,1.2,13.507,13.507,0,0,1,.4,4.466c-.286,5.606-3.308,11.85-8.224,14.816-2.054,1.239-5.824,2.192-8.334,1.076a2.476,2.476,0,0,0-3.284.861,2.419,2.419,0,0,0,.861,3.284c3.911,1.738,8.365,1.168,12.189-.563,3.52-1.594,6.334-4.9,8.212-8.192a25.216,25.216,0,0,0,3.357-10.907c.238-3.5-.264-7.463-2.747-10.14a10.729,10.729,0,0,0-13.382-1.361,2.462,2.462,0,0,0-.861,3.284,2.423,2.423,0,0,0,3.284.861Z"/><path class="c" d="M153.85,42.892c1.218,3.909,2.645,7.753,4.208,11.537a58.676,58.676,0,0,0,4.032,8.289c3.449,5.651,8.047,11.845,14.053,14.964,2.738,1.422,5.168-2.719,2.423-4.144a24.568,24.568,0,0,1-6.8-5.713A52.055,52.055,0,0,1,166.059,60c-3.4-5.643-5.63-12.129-7.581-18.388-.916-2.939-5.551-1.685-4.628,1.276Z"/><path class="c" d="M154.361,40.27c-7.406,8.3-17.249,14.261-27.632,18.083q-1.99.733-4.016,1.368a6.645,6.645,0,0,0-.811.251c.1-.049.3.237.326.172,0,0,.093-.84.116-1.086a29.112,29.112,0,0,1,.653-4.01c.384-1.634,1.292-3.5-.125-4.919-1.371-1.372-3.087-.816-4.389.264-1.337,1.109-2.651,2.246-3.982,3.362q-3.669,3.076-7.39,6.091c-5.421,4.382-10.957,8.577-16.687,12.546a2.463,2.463,0,0,0-.861,3.284,2.421,2.421,0,0,0,3.284.861c4.953-3.431,9.768-7.02,14.492-10.763q3.748-2.97,7.433-6.024,1.84-1.523,3.671-3.06.909-.764,1.815-1.53a9.66,9.66,0,0,1,1.715-1.408l-1.211.328.226.022-1.211-.328.187.124-.861-.861.108.2-.328-1.211a18.691,18.691,0,0,1-.659,2.4c-.23,1.087-.393,2.185-.532,3.286-.249,1.968-.543,4.032.934,5.616a4.776,4.776,0,0,0,5.161,1.088q2.733-.85,5.407-1.879a79.633,79.633,0,0,0,19.581-10.686,63,63,0,0,0,8.98-8.184c2.051-2.3-1.332-5.7-3.394-3.394Z"/><path class="c" d="M168.722,123.649c.344,1.942.7,3.883,1.036,5.826a33.781,33.781,0,0,0,1.223,5.449,11.223,11.223,0,0,0,4.813,5.811c4.472,2.909,9.944,4.261,15.045,5.611,2.989.791,4.264-3.838,1.276-4.629-4.634-1.226-9.43-2.393-13.465-4.854-.377-.229-1.031-.67-1.193-.8-.129-.1-.677-.593-.949-.885-.092-.1-.427-.506-.173-.169a5.523,5.523,0,0,1-.441-.686,6.977,6.977,0,0,1-.519-1.4,93.463,93.463,0,0,1-2.024-10.548A2.42,2.42,0,0,0,170.4,120.7a2.455,2.455,0,0,0-1.677,2.952Z"/><path class="c" d="M145.276,69.9A16.666,16.666,0,0,0,150,72.583a14.838,14.838,0,0,0,4.664,1.228,2.413,2.413,0,0,0,2.4-2.4,2.459,2.459,0,0,0-2.4-2.4c-.116-.007-.231-.019-.346-.033l.638.085a15.326,15.326,0,0,1-3.779-1.15l.573.242a15.119,15.119,0,0,1-3.274-1.788l.486.375c-.1-.077-.2-.156-.29-.239a2.543,2.543,0,0,0-1.7-.7,2.4,2.4,0,0,0-1.7,4.1Z"/><path class="c" d="M163.1,84.31a47.672,47.672,0,0,0-.062,6c.129,2.009.235,4.33,1.617,5.927a5.776,5.776,0,0,0,5.6,1.6,6.151,6.151,0,0,0,4.232-4.19,2.409,2.409,0,0,0-1.676-2.952,2.467,2.467,0,0,0-2.952,1.676c-.192.5.26-.471,0,0-.075.135-.141.274-.223.407l-.083.129c-.118.168-.117.169,0,.005s.124-.163-.009-.007l-.107.11c-.3.357.412-.224,0,.013a2.011,2.011,0,0,1-.206.12c-.158.082-.092.058.2-.072-.02.055-.332.1-.382.116-.408.1-.068-.042.108,0a2.509,2.509,0,0,0-.465.014c-.5.014.509.142.022.015-.122-.032-.249-.073-.372-.1-.268-.052.437.259.08.04a2.61,2.61,0,0,1-.261-.152l.244.2a2.465,2.465,0,0,0-.321-.317c.148.1.316.406.1.057q-.117-.24.088.212c-.029-.076-.054-.154-.077-.232a8.387,8.387,0,0,1-.2-.874c-.09-.462.051.486.006.083-.025-.218-.052-.434-.074-.652-.08-.783-.129-1.568-.152-2.355-.048-1.61.016-3.22.116-4.827a2.416,2.416,0,0,0-2.4-2.4,2.455,2.455,0,0,0-2.4,2.4Z"/><path class="c" d="M123.515,118.905a19.2,19.2,0,0,1,2.735-.532c.144-.02.667-.155.027-.005a4.178,4.178,0,0,1,.432-.054c.327-.04.655-.077.982-.111q1.011-.105,2.023-.174a28.8,28.8,0,0,1,3.669-.061c.211.013.442.066.652.057-.647.029-.429-.084-.189-.017.18.051.369.105.551.145.3.064-.331-.178.046.038.46.263-.27-.288.078.038.263.248.524.5.787.746a2.4,2.4,0,0,0,3.394-3.394,9.709,9.709,0,0,0-2-1.624,7.277,7.277,0,0,0-2.792-.746,23.915,23.915,0,0,0-3.832,0c-1.6.095-3.191.274-4.778.493a20.648,20.648,0,0,0-3.063.578,2.4,2.4,0,1,0,1.276,4.628Z"/><path class="d" d="M220.442,155.791c-7-5.7-12.126-7.7-27.913-11.965a78.015,78.015,0,0,1-46.452,15.893c-6.186,0-12.472-.787-18.236-3.374a29.38,29.38,0,0,1-13.9-13.062c-14.924,4.3-22.609,7.958-28.568,14.968-6.267,7.372-9.9,19.757-12.836,28.924a434.6,434.6,0,0,0-13.75,63.433c-.65,4.785-1.742,19.434,8.708,26.95,6.724,4.837,15.4,5.5,21.359,4.217a25.168,25.168,0,0,0,12.988-7.382c.015.136.028.232.028.232a137.333,137.333,0,0,0,4.011,19.074c.584,1.862,1.428,3.9,3.078,4.148,34.036,0,115.927-.278,144.272-.3a2.992,2.992,0,0,0,2.919-3.644c-4.778-21.622-16.035-78.227-19.756-102.237a94.876,94.876,0,0,0-4.455-19.155A36.736,36.736,0,0,0,220.442,155.791Z"/><path class="b" d="M139.78,216.919q.633-.288,1.275-.584A12.826,12.826,0,0,0,145.5,213.4a2.839,2.839,0,0,0-.1-4.1,5.246,5.246,0,0,0-4.016-1.025c-3.24.5-5.967,1.04-8.829,1.722,4.042-3.471,7.015-6.08,11.33-9.969a8.984,8.984,0,0,0,2.348-3.621,4.889,4.889,0,0,0-.287-2.985,3.886,3.886,0,0,0-2.576-1.879,7.8,7.8,0,0,0-5,.864l-.824.194c2-1.969,3.819-3.767,5.036-4.967,3.182-3.136,3.515-4.409,3.394-5.939a4.634,4.634,0,0,0-1.788-2.818,4.241,4.241,0,0,0-4.182-.424,23.626,23.626,0,0,0-4.333,2.121l-.2.119,2.773-2.634a4.521,4.521,0,0,0,1.06-4,3.686,3.686,0,0,0-2.745-2.61,6.775,6.775,0,0,0-5.058,1.367c-2.395,1.619-4.539,3.337-6.821,5.2.049-1.447,1.128-3.074-1.12-3.449-1.979-.329-4.888,2.61-7.115,5.089s-9.143,11.245-12.4,14.991l.814.9a104.109,104.109,0,0,0-14.489,17.177,18.7,18.7,0,0,0-2.545,5.409c-.21.924-.68,3.41-.955,4.318-.606,2-6.055,18.045-6.782,20.681l-.379,1.373a10.827,10.827,0,0,0,3.209,3.9,46.568,46.568,0,0,0,17.087,8.554c1.38.376,3.863.346,4.68-.22a3.709,3.709,0,0,0,1.066-3.584l-.682-1.645c1.223-5.061,3.664-14.276,4.156-15.97l.421-1.447a21.868,21.868,0,0,0,13.806-7.921,16.853,16.853,0,0,1,4.144-3.949C132.128,220.266,135.86,218.7,139.78,216.919Z"/><path class="c" d="M112.031,144.789c12.252,22.088,42.883,19.8,63.078,11.585a84.118,84.118,0,0,0,17.75-9.824,2.469,2.469,0,0,0,.861-3.284,2.418,2.418,0,0,0-3.283-.861,78.374,78.374,0,0,1-30.172,13.465,70.228,70.228,0,0,1-16,1.426c-5.608-.148-11.381-1.043-16.43-3.609a27.56,27.56,0,0,1-11.658-11.321c-1.5-2.7-5.646-.283-4.145,2.423Z"/><path class="c" d="M188.023,203.492a151.01,151.01,0,0,0,1.783,15.015c1.074,7.2,2.3,14.384,3.579,21.553,2.64,14.785,5.462,29.557,8.786,44.2,1,4.394,1.823,9.038,3.6,13.205a2.414,2.414,0,0,0,3.283.861,2.463,2.463,0,0,0,.861-3.284c.421.988.058.114-.031-.136-.111-.312-.212-.629-.311-.945-.249-.8-.474-1.609-.692-2.419-.6-2.241-1.142-4.5-1.666-6.761-1.517-6.542-2.884-13.119-4.208-19.7-3.024-15.039-5.839-30.135-8.181-45.3q-.4-2.6-.774-5.2-.09-.63-.177-1.261l-.057-.411c-.015-.109-.133-.991-.05-.367q-.139-1.049-.271-2.1c-.288-2.31-.56-4.63-.671-6.957-.146-3.076-4.947-3.093-4.8,0Z"/><path class="c" d="M82.406,243.768C84,238.08,86.076,232.5,87.939,226.9a61.732,61.732,0,0,0,1.975-7.048c.921-4.45,3.935-8.259,6.725-11.742a125.787,125.787,0,0,1,13.287-14.051c2.283-2.091-1.118-5.478-3.394-3.394a129.074,129.074,0,0,0-12.178,12.692c-3.216,3.873-6.766,8.132-8.483,12.936-.641,1.793-.788,3.726-1.321,5.55-.251.86-.552,1.708-.833,2.558-1.038,3.135-2.09,6.265-3.13,9.4-.959,2.885-1.991,5.764-2.81,8.693-.832,2.98,3.8,4.252,4.629,1.276Z"/><path class="c" d="M109.926,194.058c6.765-6.218,13.57-12.494,21.007-17.915,1.29-.941,3.234-2.72,5-2.383a1.431,1.431,0,0,1,1,.709c.269.407.071.17.03.046.044.133-.006.3.025.022-.029.258.041.642.017.831a2.429,2.429,0,0,1-1.018,1.537q-1.2,1.131-2.4,2.251-2.388,2.223-4.8,4.422c-3.659,3.343-7.341,6.66-11.01,9.992-2.291,2.082,1.111,5.468,3.394,3.4,3.778-3.432,7.571-6.848,11.338-10.293q2.708-2.475,5.389-4.977c1.788-1.673,3.494-3.119,3.828-5.681.634-4.868-3.908-8.142-8.487-6.69-2.515.8-4.633,2.572-6.691,4.162-2.1,1.622-4.136,3.321-6.2,4.991-4.778,3.868-9.285,8.028-13.809,12.187-2.279,2.095,1.122,5.482,3.394,3.394Z"/><path class="c" d="M128.1,205.143c4.195-3.856,8.194-7.939,12.251-11.938,3.9-3.846,11.423-9.482,6.295-15.327-3.418-3.9-8.529-1.557-12.181.62-2.651,1.581-.24,5.732,2.422,4.145a14.584,14.584,0,0,1,4.405-2.052,2.666,2.666,0,0,1,.757-.076c.021,0,.365.1.218.033a1.925,1.925,0,0,1,1.1.93,2.185,2.185,0,0,1,.256.592c-.1-.373-.038.006-.027.209.025.471.046-.084.011.036s-.225.709-.147.529c.09-.2-.193.326-.25.42a6.811,6.811,0,0,1-.381.57,20.732,20.732,0,0,1-1.942,2.1q-5.6,5.564-11.252,11.069c-1.631,1.594-3.251,3.2-4.93,4.746-2.28,2.095,1.122,5.482,3.394,3.394Z"/><path class="c" d="M139.584,194.476a5.9,5.9,0,0,1,3.032-.651c-.4-.04.4.1.411.109a2.775,2.775,0,0,1,.436.227c.068.047.389.351.332.271-.169-.237,0,.06.019.17a2.523,2.523,0,0,1,.108,1.164,5.378,5.378,0,0,1-.658,1.3,13.151,13.151,0,0,1-2.614,2.65q-5.888,5.282-11.913,10.4a2.422,2.422,0,0,0,0,3.395,2.45,2.45,0,0,0,3.394,0q3.774-3.228,7.514-6.5,1.742-1.53,3.47-3.076a25.983,25.983,0,0,0,3.846-3.8,8.3,8.3,0,0,0,1.812-4.6,6.487,6.487,0,0,0-1.77-4.681c-2.816-2.685-6.641-1.92-9.841-.524a2.414,2.414,0,0,0-.861,3.283,2.46,2.46,0,0,0,3.283.861Z"/><path class="c" d="M128.812,224.294c2.649-1.144,5.3-2.273,7.951-3.426a73.52,73.52,0,0,0,7.51-3.476c2.611-1.509,5.175-4.1,4.264-7.385-.8-2.892-3.932-4.374-6.763-4.175a62.744,62.744,0,0,0-9.857,1.848,2.4,2.4,0,0,0,1.276,4.629c1.522-.361,3.049-.7,4.585-.992a32.809,32.809,0,0,1,4.127-.694,3.092,3.092,0,0,1,1.469.208q.425.15.112.042a3.466,3.466,0,0,1,.388.233c-.357-.277.054.221-.035.044q.219.391.07.133.11.435.019.108c.016-.38-.1.246.008.057a4.19,4.19,0,0,1-1.085,1.159,20.325,20.325,0,0,1-3.864,2.049q-1.963.9-3.941,1.76c-2.879,1.26-5.772,2.487-8.657,3.733a2.416,2.416,0,0,0-.861,3.284,2.463,2.463,0,0,0,3.284.861Z"/><path class="c" d="M108.593,236.617a24.181,24.181,0,0,0,16.56-8.749,26.673,26.673,0,0,1,2.268-2.484c.165-.157.332-.312.5-.462.042-.037.528-.446.3-.265s.179-.13.227-.159a3.918,3.918,0,0,1,.363-.2,2.423,2.423,0,0,0,.861-3.284,2.452,2.452,0,0,0-3.284-.861,13.667,13.667,0,0,0-3.876,3.423,31.37,31.37,0,0,1-4.134,4.278,19.662,19.662,0,0,1-9.786,3.967,2.468,2.468,0,0,0-2.4,2.4,2.416,2.416,0,0,0,2.4,2.4Z"/><path class="c" d="M105.746,196.34c3.315-3.818,6.433-7.806,9.641-11.712,1.382-1.682,2.767-3.359,4.29-4.917A11.511,11.511,0,0,1,123.028,177q-.275.1.118-.031c.292-.066.3-.075.014-.028h.207a.172.172,0,0,1-.2-.051,1.435,1.435,0,0,1-.53-.7q-.061-.5-.059-.066.063-.438-.012,0c-.03.147-.059.295-.088.443a2.461,2.461,0,0,0,1.676,2.952,2.423,2.423,0,0,0,2.952-1.676c.265-1.339.5-2.676-.271-3.9a4.3,4.3,0,0,0-4.208-1.729c-2.965.4-5.38,3.039-7.3,5.126-2.889,3.136-5.488,6.552-8.181,9.855-1.579,1.935-3.155,3.876-4.793,5.763a2.46,2.46,0,0,0,0,3.394,2.421,2.421,0,0,0,3.394,0Z"/><path class="c" d="M76.98,242.278c-.332,3.8,2.737,6.69,5.489,8.8a45.211,45.211,0,0,0,8.7,5.2c3.327,1.52,7.169,3.278,10.887,3.327a6.284,6.284,0,0,0,4.556-1.351,6.477,6.477,0,0,0,1.462-5.738,2.416,2.416,0,0,0-2.952-1.676,2.46,2.46,0,0,0-1.676,2.952,1.71,1.71,0,0,1-.219,1.066c.184-.3.125-.1-.17-.088a9.591,9.591,0,0,1-3.3-.379,45.691,45.691,0,0,1-7.98-3.134,43.906,43.906,0,0,1-6.353-3.928c-1.581-1.181-3.83-2.852-3.638-5.05a2.419,2.419,0,0,0-2.4-2.4,2.45,2.45,0,0,0-2.4,2.4Z"/><path class="c" d="M106.915,234.9c-.9,3.095-1.68,6.226-2.487,9.344-.82,3.172-1.771,6.364-2.336,9.594a2.47,2.47,0,0,0,1.676,2.952,2.42,2.42,0,0,0,2.952-1.676c.566-3.23,1.516-6.422,2.337-9.594.806-3.118,1.592-6.248,2.487-9.344.859-2.973-3.772-4.242-4.629-1.276Z"/><path class="c" d="M116.954,139.944c-8.816,2.427-18.19,4.942-25.883,10.08a35.114,35.114,0,0,0-7.835,7.065,52.959,52.959,0,0,0-7.47,13.394c-2.154,5.241-3.817,10.662-5.54,16.054-.943,2.949,3.69,4.212,4.628,1.276,2.881-9.014,5.494-18.616,11.081-26.408,4.019-5.6,9.711-9.085,16.093-11.64a151.927,151.927,0,0,1,16.2-5.193c2.974-.819,1.711-5.451-1.276-4.628Z"/><path class="c" d="M70.226,186.537a409.17,409.17,0,0,0-13.75,63.433c-.868,6.4-.672,13.2,1.777,19.25A23.415,23.415,0,0,0,66,279.42a30.028,30.028,0,0,0,28,3.235,30.19,30.19,0,0,0,12.882-10.669,2.419,2.419,0,0,0-.861-3.283,2.452,2.452,0,0,0-3.284.861,23.843,23.843,0,0,1-20.75,10.355c-8.1-.342-15.961-4.391-19.16-12.119-2.221-5.364-2.411-11.285-1.652-17.056,1.2-9.106,3.049-19.229,5.014-28.617,2.416-11.549,5.248-23.02,8.668-34.314.9-2.963-3.734-4.229-4.628-1.276Z"/><path class="c" d="M99.473,274.625a120.636,120.636,0,0,0,4,19.4,11.6,11.6,0,0,0,2.355,4.7,5.292,5.292,0,0,0,4.186,1.515l6.168,0q15.642-.014,31.284-.052,18.313-.04,36.627-.089l35.655-.092q14.175-.035,28.351-.061c1.706,0,3.429.066,5.134-.006a5.539,5.539,0,0,0,4.582-2.56,6.047,6.047,0,0,0,.526-4.691q-1.386-6.3-2.692-12.619-3.555-17.037-6.887-34.12c-2.336-11.911-4.62-23.832-6.779-35.777-.891-4.93-1.762-9.864-2.576-14.808-.944-5.733-1.676-11.512-3.19-17.132-1.982-7.356-4.773-14.3-9.86-20.081a42.89,42.89,0,0,0-14.821-10.722,87.935,87.935,0,0,0-9.879-3.529c-2.963-.9-4.23,3.736-1.276,4.629,5.743,1.734,11.284,3.757,16.189,7.284a35.606,35.606,0,0,1,12.2,15.057c4.408,10.473,5.334,22.121,7.272,33.219,1.945,11.14,4.042,22.253,6.184,33.356q3.366,17.438,6.92,34.839,1.481,7.237,3.007,14.465.62,2.916,1.252,5.829c.129.592.629,1.74.353,2.262-.237.449-1.078.3-1.59.3q-12.568.014-25.136.049-16.758.039-33.517.085-17.909.047-35.816.089-16.284.039-32.568.065-6.577.01-13.154.014H110.66a4.928,4.928,0,0,1-1.49,0c.366.163-.28-.632-.335-.735a11.057,11.057,0,0,1-.732-1.958c-.975-3.167-1.7-6.416-2.353-9.661-.555-2.744-1.143-5.977-1.477-8.468a2.48,2.48,0,0,0-2.4-2.4c-1.163,0-2.573,1.106-2.4,2.4Z"/><path class="e" d="M52.077,165.736c-8.556-.36-17.095-1.05-25.652-1.391a2.433,2.433,0,0,0-2.314,3.038c.694,4.046,1.751,8.02,2.528,12.05l2.314-3.038c-8.853-.691-17.7-1.466-26.553-2.167a2.421,2.421,0,0,0-2.4,2.4,2.448,2.448,0,0,0,2.4,2.4c8.853.7,17.7,1.476,26.553,2.167,1.669.131,2.586-1.63,2.314-3.038-.776-4.03-1.833-8-2.528-12.05l-2.314,3.038c8.557.341,17.1,1.031,25.652,1.391,3.089.13,3.083-4.67,0-4.8Z"/><path class="e" d="M66.53,149.951c-9.46-5.568-18.161-12.351-27.634-17.9a2.431,2.431,0,0,0-3.525,1.434c-1.287,3.9-2.22,7.9-3.427,11.827l3.526-1.435c-8.076-5.13-16.362-9.92-24.433-15.059-2.613-1.663-5.024,2.489-2.423,4.145,8.071,5.138,16.357,9.929,24.433,15.059a2.426,2.426,0,0,0,3.526-1.434c1.207-3.923,2.14-7.928,3.426-11.826L36.474,136.2c9.472,5.547,18.173,12.33,27.634,17.9,2.668,1.57,5.086-2.577,2.422-4.145Z"/></svg>